<svg width="20" height="26" viewBox="0 0 20 26" fill="none" xmlns="http://www.w3.org/2000/svg">
<path fill-rule="evenodd" clip-rule="evenodd" d="M9.80568 25.0774C5.19091 25.0774 1.25 24.3593 1.25 21.4833C1.25 18.6073 5.16591 15.9524 9.80568 15.9524C14.4205 15.9524 18.3614 18.5816 18.3614 21.4576C18.3614 24.3324 14.4455 25.0774 9.80568 25.0774Z" stroke="white" stroke-width="1.5" stroke-linecap="round" stroke-linejoin="round"/>
<path fill-rule="evenodd" clip-rule="evenodd" d="M9.79662 11.967C12.825 11.967 15.2796 9.5125 15.2796 6.48409C15.2796 3.45568 12.825 1 9.79662 1C6.76822 1 4.3125 3.45568 4.3125 6.48409C4.30231 9.50227 6.73981 11.9568 9.75799 11.967C9.77162 11.967 9.78412 11.967 9.79662 11.967Z" stroke="white" stroke-width="1.5" stroke-linecap="round" stroke-linejoin="round"/>
</svg>
