<svg width="24" height="24" viewBox="0 0 24 24" fill="none" xmlns="http://www.w3.org/2000/svg">
<path fill-rule="evenodd" clip-rule="evenodd" d="M23.2505 5.34225C23.2505 7.878 21.194 9.9345 18.6582 9.9345C16.1225 9.9345 14.0671 7.878 14.0671 5.34225C14.0671 2.8065 16.1225 0.75 18.6582 0.75C21.194 0.75 23.2505 2.8065 23.2505 5.34225Z" stroke="white" stroke-width="1.5" stroke-linecap="round" stroke-linejoin="round"/>
<path fill-rule="evenodd" clip-rule="evenodd" d="M9.93338 5.34225C9.93338 7.878 7.878 9.9345 5.34112 9.9345C2.8065 9.9345 0.75 7.878 0.75 5.34225C0.75 2.8065 2.8065 0.75 5.34112 0.75C7.878 0.75 9.93338 2.8065 9.93338 5.34225Z" stroke="white" stroke-width="1.5" stroke-linecap="round" stroke-linejoin="round"/>
<path fill-rule="evenodd" clip-rule="evenodd" d="M23.2505 18.5774C23.2505 21.1132 21.194 23.1685 18.6582 23.1685C16.1225 23.1685 14.0671 21.1132 14.0671 18.5774C14.0671 16.0417 16.1225 13.9852 18.6582 13.9852C21.194 13.9852 23.2505 16.0417 23.2505 18.5774Z" stroke="white" stroke-width="1.5" stroke-linecap="round" stroke-linejoin="round"/>
<path fill-rule="evenodd" clip-rule="evenodd" d="M9.93338 18.5774C9.93338 21.1132 7.878 23.1685 5.34112 23.1685C2.8065 23.1685 0.75 21.1132 0.75 18.5774C0.75 16.0417 2.8065 13.9852 5.34112 13.9852C7.878 13.9852 9.93338 16.0417 9.93338 18.5774Z" stroke="white" stroke-width="1.5" stroke-linecap="round" stroke-linejoin="round"/>
</svg>
